<?xml version="1.0" encoding="UTF-8" standalone="no"?>
<!-- Created with Inkscape (http://www.inkscape.org/) -->

<svg
   xmlns:dc="http://purl.org/dc/elements/1.1/"
   xmlns:cc="http://creativecommons.org/ns#"
   xmlns:rdf="http://www.w3.org/1999/02/22-rdf-syntax-ns#"
   xmlns:svg="http://www.w3.org/2000/svg"
   xmlns="http://www.w3.org/2000/svg"
   xmlns:sodipodi="http://sodipodi.sourceforge.net/DTD/sodipodi-0.dtd"
   xmlns:inkscape="http://www.inkscape.org/namespaces/inkscape"
   width="512"
   height="128"
   id="svg2"
   version="1.1"
   inkscape:version="0.48.2 r9819"
   inkscape:export-filename="C:\Users\Michiel\LD26\LD26-android\assets\logo.png"
   inkscape:export-xdpi="90"
   inkscape:export-ydpi="90"
   sodipodi:docname="logo.svg">
  <defs
     id="defs4" />
  <sodipodi:namedview
     id="base"
     pagecolor="#ffffff"
     bordercolor="#666666"
     borderopacity="1.0"
     inkscape:pageopacity="0.0"
     inkscape:pageshadow="2"
     inkscape:zoom="2"
     inkscape:cx="245.46705"
     inkscape:cy="64.285714"
     inkscape:document-units="px"
     inkscape:current-layer="layer1"
     showgrid="false"
     inkscape:window-width="1280"
     inkscape:window-height="961"
     inkscape:window-x="-8"
     inkscape:window-y="-8"
     inkscape:window-maximized="1">
    <inkscape:grid
       type="xygrid"
       id="grid2985"
       empspacing="2"
       visible="true"
       enabled="true"
       snapvisiblegridlinesonly="true"
       spacingx="8px"
       spacingy="8px" />
  </sodipodi:namedview>
  <metadata
     id="metadata7">
    <rdf:RDF>
      <cc:Work
         rdf:about="">
        <dc:format>image/svg+xml</dc:format>
        <dc:type
           rdf:resource="http://purl.org/dc/dcmitype/StillImage" />
        <dc:title />
      </cc:Work>
    </rdf:RDF>
  </metadata>
  <g
     inkscape:label="Layer 1"
     inkscape:groupmode="layer"
     id="layer1"
     transform="translate(0,-924.36218)">
    <path
       style="font-size:medium;font-style:normal;font-variant:normal;font-weight:normal;font-stretch:normal;text-indent:0;text-align:start;text-decoration:none;line-height:normal;letter-spacing:normal;word-spacing:normal;text-transform:none;direction:ltr;block-progression:tb;writing-mode:lr-tb;text-anchor:start;baseline-shift:baseline;color:#000000;fill:#ffffff;fill-opacity:1;stroke:#000000;stroke-width:0.50000000000000000;marker:none;visibility:visible;display:inline;overflow:visible;enable-background:accumulate;font-family:Sans;-inkscape-font-specification:Sans;stroke-opacity:1;stroke-miterlimit:4;stroke-dasharray:none"
       d="M 16.875 24.21875 A 1.0001 1.0001 0 0 0 16.28125 24.53125 L 3.375 37.4375 A 1.0001 1.0001 0 0 0 3.0625 38.15625 L 3.0625 89.8125 A 1.0001 1.0001 0 0 0 3.375 90.53125 L 16.28125 103.4375 A 1.0001 1.0001 0 0 0 17 103.75 L 42.84375 103.75 A 1.0001 1.0001 0 0 0 43.53125 103.4375 L 56.46875 90.53125 A 1.0001 1.0001 0 0 0 56.75 89.8125 L 56.75 76.90625 A 1.0001 1.0001 0 0 0 55.75 75.90625 L 42.84375 75.90625 A 1.0001 1.0001 0 1 0 42.84375 77.90625 L 54.75 77.90625 L 54.75 89.40625 L 42.40625 101.75 L 17.40625 101.75 L 5.0625 89.40625 L 5.0625 38.5625 L 17.40625 26.21875 L 42.40625 26.21875 L 54.75 38.5625 L 54.75 51.0625 A 1.0001 1.0001 0 1 0 56.75 51.0625 L 56.75 38.15625 A 1.0001 1.0001 0 0 0 56.46875 37.4375 L 43.53125 24.53125 A 1.0001 1.0001 0 0 0 42.84375 24.21875 L 17 24.21875 A 1.0001 1.0001 0 0 0 16.875 24.21875 z M 68.5625 24.21875 A 1.0001 1.0001 0 0 0 67.65625 25.21875 L 67.65625 63.8125 A 1.0001 1.0001 0 0 0 67.65625 64.09375 L 67.65625 102.75 A 1.0001 1.0001 0 1 0 69.65625 102.75 L 69.65625 65 L 107.03125 65 L 119.34375 77.34375 L 119.34375 102.75 A 1.0001 1.0001 0 1 0 121.34375 102.75 L 121.34375 76.90625 A 1.0001 1.0001 0 0 0 121.0625 76.1875 L 108.84375 64 L 121.0625 51.78125 A 1.0001 1.0001 0 0 0 121.34375 51.0625 L 121.34375 38.15625 A 1.0001 1.0001 0 0 0 121.0625 37.4375 L 108.125 24.53125 A 1.0001 1.0001 0 0 0 107.4375 24.21875 L 68.65625 24.21875 A 1.0001 1.0001 0 0 0 68.5625 24.21875 z M 146.09375 24.21875 A 1.0001 1.0001 0 0 0 145.46875 24.53125 L 132.5625 37.4375 A 1.0001 1.0001 0 0 0 132.25 38.15625 L 132.25 63.5625 A 1.0043849 1.0043849 0 0 0 132.25 64.4375 L 132.25 102.75 A 1.0001 1.0001 0 1 0 134.25 102.75 L 134.25 65 L 183.9375 65 L 183.9375 102.75 A 1.0001 1.0001 0 1 0 185.9375 102.75 L 185.9375 64.1875 A 1.0001 1.0001 0 0 0 185.9375 63.8125 L 185.9375 38.15625 A 1.0001 1.0001 0 0 0 185.65625 37.4375 L 172.71875 24.53125 A 1.0001 1.0001 0 0 0 172.03125 24.21875 L 146.1875 24.21875 A 1.0001 1.0001 0 0 0 146.09375 24.21875 z M 197.75 24.21875 A 1.0001 1.0001 0 0 0 196.875 25.21875 L 196.875 76.90625 A 1.0001 1.0001 0 0 0 197.15625 77.625 L 223 103.4375 A 1.0001 1.0001 0 0 0 224.40625 103.4375 L 250.25 77.625 A 1.0001 1.0001 0 0 0 250.53125 76.90625 L 250.53125 25.21875 A 1.0001 1.0001 0 1 0 248.53125 25.21875 L 248.53125 76.5 L 223.6875 101.3125 L 198.875 76.5 L 198.875 25.21875 A 1.0001 1.0001 0 0 0 197.75 24.21875 z M 262.375 24.21875 A 1.001098 1.001098 0 1 0 262.46875 26.21875 L 287.3125 26.21875 L 287.3125 101.75 L 262.46875 101.75 A 1.0001 1.0001 0 0 0 262.25 101.75 A 1.0059637 1.0059637 0 1 0 262.46875 103.75 L 288.125 103.75 A 1.0001 1.0001 0 0 0 288.53125 103.75 L 314.125 103.75 A 1.0001 1.0001 0 1 0 314.125 101.75 L 289.3125 101.75 L 289.3125 26.21875 L 314.125 26.21875 A 1.0001 1.0001 0 1 0 314.125 24.21875 L 262.46875 24.21875 A 1.0001 1.0001 0 0 0 262.375 24.21875 z M 326.96875 24.21875 A 1.001098 1.001098 0 1 0 327.0625 26.21875 L 351.90625 26.21875 L 351.90625 102.75 A 1.0001 1.0001 0 1 0 353.90625 102.75 L 353.90625 26.21875 L 378.75 26.21875 A 1.0001 1.0001 0 1 0 378.75 24.21875 L 327.0625 24.21875 A 1.0001 1.0001 0 0 0 326.96875 24.21875 z M 404.46875 24.21875 A 1.0001 1.0001 0 0 0 403.875 24.53125 L 390.9375 37.4375 A 1.0001 1.0001 0 0 0 390.65625 38.15625 L 390.65625 63.5625 A 1.0043849 1.0043849 0 0 0 390.65625 64.4375 L 390.65625 102.75 A 1.0001 1.0001 0 1 0 392.65625 102.75 L 392.65625 65 L 442.34375 65 L 442.34375 102.75 A 1.0001 1.0001 0 1 0 444.34375 102.75 L 444.34375 64.1875 A 1.0001 1.0001 0 0 0 444.34375 63.8125 L 444.34375 38.15625 A 1.0001 1.0001 0 0 0 444.03125 37.4375 L 431.125 24.53125 A 1.0001 1.0001 0 0 0 430.40625 24.21875 L 404.5625 24.21875 A 1.0001 1.0001 0 0 0 404.46875 24.21875 z M 469.0625 24.21875 A 1.0001 1.0001 0 0 0 468.46875 24.53125 L 455.53125 37.4375 A 1.0001 1.0001 0 0 0 455.25 38.15625 L 455.25 51.0625 A 1.0001 1.0001 0 0 0 455.53125 51.78125 L 468.46875 64.6875 A 1.0001 1.0001 0 0 0 469.15625 65 L 494.625 65 L 506.9375 77.34375 L 506.9375 89.40625 L 494.59375 101.75 L 469.59375 101.75 L 456.96875 89.125 A 1.0054607 1.0054607 0 1 0 455.53125 90.53125 L 468.46875 103.4375 A 1.0001 1.0001 0 0 0 469.15625 103.75 L 495 103.75 A 1.0001 1.0001 0 0 0 495.71875 103.4375 L 508.625 90.53125 A 1.0001 1.0001 0 0 0 508.9375 89.8125 L 508.9375 76.90625 A 1.0001 1.0001 0 0 0 508.625 76.1875 L 495.71875 63.28125 A 1.0001 1.0001 0 0 0 495 63 L 469.59375 63 L 457.25 50.65625 L 457.25 38.5625 L 469.59375 26.21875 L 494.59375 26.21875 L 507.21875 38.84375 A 1.0001 1.0001 0 1 0 508.625 37.4375 L 495.71875 24.53125 A 1.0001 1.0001 0 0 0 495 24.21875 L 469.15625 24.21875 A 1.0001 1.0001 0 0 0 469.0625 24.21875 z M 69.65625 26.21875 L 107 26.21875 L 119.34375 38.5625 L 119.34375 50.65625 L 107 63 L 69.65625 63 L 69.65625 26.21875 z M 146.625 26.21875 L 171.59375 26.21875 L 183.9375 38.53125 L 183.9375 63 L 134.25 63 L 134.25 38.5625 L 146.625 26.21875 z M 405 26.21875 L 430 26.21875 L 442.34375 38.5625 L 442.34375 63 L 392.65625 63 L 392.65625 38.5625 L 405 26.21875 z "
       transform="translate(0,924.36218)"
       id="path2987" />
    <text
       xml:space="preserve"
       style="font-size:72px;font-style:normal;font-variant:normal;font-weight:normal;font-stretch:normal;line-height:125%;letter-spacing:0px;word-spacing:0px;fill:#000000;fill-opacity:1;stroke:none;font-family:Quicksand Book;-inkscape-font-specification:Quicksand Book"
       x="52.5"
       y="-46"
       id="text2984"
       sodipodi:linespacing="125%"
       transform="translate(0,924.36218)"><tspan
         sodipodi:role="line"
         id="tspan2986"
         x="52.5"
         y="-46" /></text>
    <text
       xml:space="preserve"
       style="font-size:16px;font-style:normal;font-variant:normal;font-weight:normal;font-stretch:normal;line-height:125%;letter-spacing:0px;word-spacing:0px;fill:#ffffff;fill-opacity:1;stroke:none;font-family:Quicksand Book;-inkscape-font-specification:Quicksand Book"
       x="368.73465"
       y="1047.3622"
       id="text2988"
       sodipodi:linespacing="125%"><tspan
         sodipodi:role="line"
         x="368.73465"
         y="1047.3622"
         id="tspan2992">by michiel bakker</tspan></text>
  </g>
</svg>
